<svg width="113" height="36" fill="none" xmlns="http://www.w3.org/2000/svg"><path d="M0 0h113v36H0z"/><path fill-rule="evenodd" clip-rule="evenodd" d="M93.724 14.25c1.035 0 2.404.33 3.247.85l-.732 1.212a4.818 4.818 0 0 0-2.542-.766c-.942 0-1.814.27-1.814.89s.948.827 2.039 1.064c1.481.323 3.228.703 3.228 2.257 0 1.49-1.617 2.38-3.549 2.38-1.236 0-2.788-.432-3.752-1.082l.796-1.17c.911.616 1.988.95 3.092.958.827 0 1.794-.275 1.794-.919 0-.686-1.002-.887-2.134-1.114-1.469-.295-3.156-.634-3.156-2.135 0-1.41 1.533-2.425 3.483-2.425Zm-9.243 7.887c2.907 0 4.637-1.769 4.637-3.943 0-2.175-1.73-3.944-4.637-3.944-2.907 0-4.638 1.77-4.638 3.944s1.73 3.943 4.638 3.943Zm-3.018-3.943c0-1.554 1.257-2.564 3.018-2.564 1.763 0 3.018 1.01 3.018 2.564s-1.256 2.564-3.018 2.564c-1.762 0-3.018-1.01-3.018-2.564Zm-18.26-3.866h1.587l4.016 7.66h-.895c-.603 0-.818-.03-1.05-.483l-.472-.925h-4.808l-.72 1.408h-1.673l4.015-7.66Zm.782 1.543-1.704 3.337h3.408l-1.704-3.337ZM54.642 14.4H53.09v7.042a.507.507 0 0 0 .15.399.52.52 0 0 0 .405.147h4.642l.737-1.405h-4.38V14.4ZM73.45 19.72v2.267h-1.554V14.4l.267-.007c.78-.02 1.747-.045 2.562-.045 1.777 0 2.96.249 3.664.945.43.442.656 1.04.623 1.653 0 2.192-1.73 2.789-4.198 2.789-.324 0-.919-.008-1.318-.013h-.046Zm0-1.405c.392.008.885.013 1.225.013.997 0 1.91-.03 2.398-.512.223-.224.341-.53.324-.845a1.04 1.04 0 0 0-.264-.708c-.486-.481-1.194-.511-2.458-.511-.34 0-.832.005-1.225.013v2.55Zm31.674-3.916h-7.418v1.404h2.905v6.184h1.554v-6.184h2.959V14.4Zm.976 7.042V14.4h6.67v1.405h-5.116v1.607h4.693v1.405h-4.693v1.766h5.256v1.405h-6.255a.52.52 0 0 1-.404-.147.507.507 0 0 1-.151-.4Z" fill="#706F6F"/><g clip-path="url(#a)"><path d="M16.07 35.87c-5.553-.245-11.562-2.455-14.45-7.503C-1.09 23.599.3 17.587 3.35 13.33 8.187 6.441 16.12 2.133 24.296.63c6.275-1.112 13.34-.505 18.466 3.605 3.48 2.735 5.05 7.456 4.118 11.755-1.375 6.64-6.57 11.81-12.235 15.15-5.58 3.252-12.103 5.036-18.574 4.73Z" fill="url(#b)"/><path d="M13.652 11.656c1.043.375 4.437 1.568 6.33 2.853l.183.128 14.105-.22c.025-.034.544-.948.852-1.537.337-.647.36-1.2-.022-1.568-.415-.4-1.087-.463-2.444-.463H13.727c-.15 0-.535-.026-.597.285a.336.336 0 0 0 .084.289c.127.109.276.189.438.233ZM42.016 15.197c-.313.009-20.966.325-21.286.337-.172.007-.222.046-.223.231-.008 1.499-1.992 2.94-4.691 4.227-2.848 1.358-6.423 2.71-8.281 3.393-.443.164-1.237.444-1.493.574-.204.104-.345.265-.28.451.064.186.27.282.977.094.316-.084.672-.17 1.064-.273 3.567-.929 10.101-2.564 16.464-4.153 6.59-1.646 13.086-3.07 17.848-3.928.374-.067.683-.27.667-.554-.014-.266-.324-.411-.766-.399ZM25.038 24.432c.002 0 .93.025 1.607-.381 1.09-.655 2.525-1.843 4.556-4.7L9.43 24.702l15.61-.269Z" fill="#003DA5"/></g><defs><linearGradient id="b" x1="3.421" y1="15.147" x2="33.073" y2="30.698" gradientUnits="userSpaceOnUse"><stop stop-color="#F0E63C"/><stop offset="1" stop-color="#E6AF32"/></linearGradient><clipPath id="a"><path fill="#fff" d="M0 0h47.25v36H0z"/></clipPath></defs></svg>