<svg xmlns="http://www.w3.org/2000/svg" viewBox="-0.5 82.7 80.5 18"><path fill="#4A4A49" d="M42.8,88.4c-0.9-0.9-1.9-1.1-3.1-1.1c-1.1,0-2.2,0.2-3.1,1.1c-1.3,1.1-1.3,3.4-1.3,5.3s0,4.1,1.3,5.3
        c0.9,0.8,1.8,1.1,3.1,1.1c1.3,0,2.4-0.3,3.1-1.1c0.8-0.8,1.1-2,1.2-2.9h-3.3c0,0.2-0.1,0.6-0.2,0.8c-0.2,0.3-0.4,0.5-0.9,0.5
        c-0.4,0-0.7-0.2-0.9-0.5c-0.2-0.3-0.2-1.3-0.2-2.1h5.5C44.1,92.7,44.3,89.8,42.8,88.4z M38.6,92.4c0-0.8,0.1-1.6,0.2-1.9
        c0.2-0.3,0.4-0.5,0.9-0.5c0.4,0,0.7,0.2,0.9,0.5c0.2,0.3,0.2,1.1,0.2,1.9H38.6z M3.5,95.7V83.5H0v13.4c0,2.4,0.9,2.9,3.3,2.9l4.4,0
        v-2.9H5.3C3.9,96.9,3.5,96.7,3.5,95.7z M23.2,87.3c-1.4,0-2.6,0.3-3.5,1.5c-0.8,1.2-0.9,3.2-0.9,4.9c0,1.6,0.1,3.7,0.9,4.9
        c0.9,1.2,2.1,1.5,3.5,1.5s2.6-0.3,3.5-1.5c0.8-1.2,0.9-3.2,0.9-4.9c0-1.6-0.1-3.7-0.9-4.9C25.8,87.6,24.6,87.3,23.2,87.3z M24,96.8
        c-0.2,0.3-0.5,0.5-0.9,0.5c-0.3,0-0.7-0.1-0.9-0.5C22,96.3,22,95.1,22,93.7c0-1.4,0-2.6,0.2-3.1c0.2-0.3,0.5-0.5,0.9-0.5
        c0.3,0,0.7,0.1,0.9,0.5c0.2,0.5,0.2,1.7,0.2,3.1C24.3,95.1,24.3,96.3,24,96.8z M14.1,87.3c-0.4,0-0.9,0.1-1.3,0.3
        c-0.3,0.2-0.6,0.4-0.8,0.6v-4.7H8.7v16.3H12v-8.6c0-0.8,0.4-1.1,1-1.1s1,0.4,1,1.1v8.6h3.3v-8.7c0-1.5-0.2-2.2-0.7-2.8
        C16,87.6,15.3,87.3,14.1,87.3z M32.9,84.6h-3.3V88h-1.2v2.3h1.2v5.6c0,1.6,0.6,2.6,1.5,3.2c1,0.6,2,0.8,3.4,0.8v-2.7
        c-1.1,0-1.6-0.5-1.6-1.4v-5.4h1.6V88h-1.6V84.6z M69.7,88.4c-0.9-0.9-1.9-1.1-3.1-1.1c-1.1,0-2.2,0.2-3.1,1.1
        c-1.3,1.1-1.3,3.4-1.3,5.3s0,4.1,1.3,5.3c0.9,0.8,1.8,1.1,3.1,1.1c1.3,0,2.4-0.3,3.1-1.1c0.8-0.8,1.1-2,1.2-2.9h-3.3
        c0,0.2-0.1,0.6-0.2,0.8c-0.2,0.3-0.4,0.5-0.9,0.5c-0.4,0-0.7-0.2-0.9-0.5c-0.2-0.3-0.2-1.3-0.2-2.1H71C71,92.7,71.2,89.8,69.7,88.4
        z M65.5,92.4c0-0.8,0.1-1.6,0.2-1.9c0.2-0.3,0.4-0.5,0.9-0.5c0.4,0,0.7,0.2,0.9,0.5c0.2,0.3,0.2,1.1,0.2,1.9H65.5z M77,87.7
        c-0.6,0.3-1.1,0.7-1.5,1.1v-1.3h-3.2v12.3h3.3v-7.5c0-1.2,0.9-2,2-2H79v-3C78.2,87.3,77.6,87.5,77,87.7z M57.3,86.6h3.5v-3.3h-3.5
        V86.6z M48.8,95.6V83.5h-3.3v12.3c0,1.6,0.6,2.6,1.5,3.2c1,0.6,2,0.8,3.4,0.8v-2.7C49.3,97.1,48.8,96.6,48.8,95.6z M54.7,95.6V83.5
        h-3.3v12.3c0,1.6,0.6,2.6,1.5,3.2c1,0.6,2,0.8,3.4,0.8v-2.7C55.3,97.1,54.7,96.6,54.7,95.6z M57.4,99.8h3.3V88h-3.3V99.8z"/></svg>